<svg xmlns="http://www.w3.org/2000/svg" style="display: none;">
    <symbol id="icon-logo" viewBox="0 0 24 24" fill="none" stroke="currentColor" stroke-width="2" stroke-linecap="round" stroke-linejoin="round">
        <path d="M3 3v18h18"/><path d="m19 9-5 5-4-4-3 3"/>
    </symbol>
    <symbol id="icon-dash" viewBox="0 0 24 24" fill="none" stroke="currentColor" stroke-width="2">
        <rect width="7" height="9" x="3" y="3" rx="1"/><rect width="7" height="5" x="14" y="3" rx="1"/><rect width="7" height="9" x="14" y="12" rx="1"/><rect width="7" height="5" x="3" y="16" rx="1"/>
    </symbol>
    <symbol id="icon-operar" viewBox="0 0 24 24" fill="none" stroke="currentColor" stroke-width="2">
        <path d="M12 5v14"/><path d="m19 12-7 7-7-7"/>
    </symbol>
    <symbol id="icon-portafolio" viewBox="0 0 24 24" fill="none" stroke="currentColor" stroke-width="2">
        <path d="M21.21 15.89A10 10 0 1 1 8 2.83"/><path d="M22 12A10 10 0 0 0 12 2v10z"/>
    </symbol>
    <symbol id="icon-calendar" viewBox="0 0 24 24" fill="none" stroke="currentColor" stroke-width="2">
        <rect width="18" height="18" x="3" y="4" rx="2" ry="2"/><line x1="16" x2="16" y1="2" y2="6"/><line x1="8" x2="8" y1="2" y2="6"/><line x1="3" x2="21" y1="10" y2="10"/>
    </symbol>
    <symbol id="icon-historial" viewBox="0 0 24 24" fill="none" stroke="currentColor" stroke-width="2">
        <path d="M4 4h16c1.1 0 2 .9 2 2v12c0 1.1-.9 2-2 2H4c-1.1 0-2-.9-2-2V6c0-1.1.9-2 2-2z"/><polyline points="22,6 12,13 2,6"/>
    </symbol>
    <symbol id="icon-tools" viewBox="0 0 24 24" fill="none" stroke="currentColor" stroke-width="2">
        <circle cx="12" cy="12" r="10"/><path d="M12 8v4l3 3"/>
    </symbol>
    <symbol id="icon-settings" viewBox="0 0 24 24" fill="none" stroke="currentColor" stroke-width="2">
        <path d="M12.22 2h-.44a2 2 0 0 0-2 2v.18a2 2 0 0 1-1 1.73l-.43.25a2 2 0 0 1-2 0l-.15-.08a2 2 0 0 0-2.73.73l-.22.38a2 2 0 0 0 .73 2.73l.15.1a2 2 0 0 1 1 1.72v.51a2 2 0 0 1-1 1.74l-.15.09a2 2 0 0 0-.73 2.73l.22.38a2 2 0 0 0 2.73.73l.15-.08a2 2 0 0 1 2 0l.43.25a2 2 0 0 1 1 1.73V20a2 2 0 0 0 2 2h.44a2 2 0 0 0 2-2v-.18a2 2 0 0 1 1-1.73l.43-.25a2 2 0 0 1 2 0l.15.08a2 2 0 0 0 2.73-.73l.22-.39a2 2 0 0 0-.73-2.73l-.15-.08a2 2 0 0 1-1-1.74v-.5a2 2 0 0 1 1-1.74l.15-.09a2 2 0 0 0 .73-2.73l-.22-.38a2 2 0 0 0-2.73-.73l-.15.08a2 2 0 0 1-2 0l-.43-.25a2 2 0 0 1-1-1.73V4a2 2 0 0 0-2-2z"/><circle cx="12" cy="12" r="3"/>
    </symbol>
    <symbol id="icon-menu" viewBox="0 0 24 24" fill="none" stroke="currentColor" stroke-width="2">
        <line x1="3" x2="21" y1="6" y2="6"/><line x1="3" x2="21" y1="12" y2="12"/><line x1="3" x2="21" y1="18" y2="18"/>
    </symbol>
    <symbol id="icon-privacy" viewBox="0 0 24 24" fill="none" stroke="currentColor" stroke-width="2">
        <path d="M2 12s3-7 10-7 10 7 10 7-3 7-10 7-10-7-10-7Z"/><circle cx="12" cy="12" r="3"/>
    </symbol>
    <symbol id="icon-privacy-off" viewBox="0 0 24 24" fill="none" stroke="currentColor" stroke-width="2">
        <path d="M9.88 9.88a3 3 0 1 0 4.24 4.24"/><path d="M10.73 5.08A10.43 10.43 0 0 1 12 5c7 0 10 7 10 7a13.16 13.16 0 0 1-1.67 2.68"/><path d="M6.61 6.61A13.526 13.526 0 0 0 2 12s3 7 10 7a9.74 9.74 0 0 0 5.39-1.61"/><line x1="2" x2="22" y1="2" y2="22"/>
    </symbol>
    <symbol id="icon-trash" viewBox="0 0 24 24" fill="none" stroke="currentColor" stroke-width="2">
        <polyline points="3 6 5 6 21 6"></polyline><path d="M19 6v14a2 2 0 0 1-2 2H7a2 2 0 0 1-2-2V6m3 0V4a2 2 0 0 1 2-2h4a2 2 0 0 1 2 2v2"></path>
    </symbol>

    <symbol id="icon-sun" viewBox="0 0 24 24" fill="none" stroke="currentColor" stroke-width="2">
        <circle cx="12" cy="12" r="5"/><line x1="12" y1="1" x2="12" y2="3"/><line x1="12" y1="21" x2="12" y2="23"/><line x1="4.22" y1="4.22" x2="5.64" y2="5.64"/><line x1="18.36" y1="18.36" x2="19.78" y2="19.78"/><line x1="1" y1="12" x2="3" y2="12"/><line x1="21" y1="12" x2="23" y2="12"/><line x1="4.22" y1="19.78" x2="5.64" y2="18.36"/><line x1="18.36" y1="5.64" x2="19.78" y2="4.22"/>
    </symbol>
    <symbol id="icon-moon" viewBox="0 0 24 24" fill="none" stroke="currentColor" stroke-width="2">
        <path d="M21 12.79A9 9 0 1 1 11.21 3 7 7 0 0 0 21 12.79z"/>
    </symbol>
    <symbol id="icon-empty" viewBox="0 0 24 24" fill="none" stroke="currentColor" stroke-width="1.5">
        <path d="M21 12c0-4.97-4.03-9-9-9s-9 4.03-9 9 4.03 9 9 9 9-4.03 9-9z"/><path d="M15.5 9.5L12 13l-3.5-3.5M12 13v-5"/>
    </symbol>
    <symbol id="icon-fire" viewBox="0 0 24 24" fill="none" stroke="currentColor" stroke-width="2">
        <path d="M8.5 14.5A2.5 2.5 0 0 0 11 12c0-1.38-.5-2-1-3-1.072-2.143-.224-4.054 2-6 .5 2.5 2 4.9 4 6.5 2 1.6 3 3.5 3 5.5a7 7 0 1 1-14 0c0-1.153.433-2.294 1-3a2.5 2.5 0 0 0 2.5 2.5z"/>
    </symbol>
    <symbol id="icon-shop" viewBox="0 0 24 24" fill="none" stroke="currentColor" stroke-width="2">
        <path d="M3 9l9-7 9 7v11a2 2 0 0 1-2 2H5a2 2 0 0 1-2-2z"></path><polyline points="9 22 9 12 15 12 15 22"></polyline>
    </symbol>
    <symbol id="icon-edit" viewBox="0 0 24 24" fill="none" stroke="currentColor" stroke-width="2" stroke-linecap="round" stroke-linejoin="round">
        <path d="M11 4H4a2 2 0 0 0-2 2v14a2 2 0 0 0 2 2h14a2 2 0 0 0 2-2v-7"/><path d="M18.5 2.5a2.121 2.121 0 0 1 3 3L12 15l-4 1 1-4 9.5-9.5z"/>
    </symbol>
    <symbol id="icon-note" viewBox="0 0 24 24" fill="none" stroke="currentColor" stroke-width="2" stroke-linecap="round" stroke-linejoin="round">
        <path d="M14 2H6a2 2 0 0 0-2 2v16a2 2 0 0 0 2 2h12a2 2 0 0 0 2-2V8z"/><polyline points="14 2 14 8 20 8"/><line x1="16" y1="13" x2="8" y2="13"/><line x1="16" y1="17" x2="8" y2="17"/><polyline points="10 9 9 9 8 9"/>
    </symbol>
    <symbol id="icon-zen" viewBox="0 0 24 24" fill="none" stroke="currentColor" stroke-width="2" stroke-linecap="round" stroke-linejoin="round">
        <line x1="19" y1="5" x2="5" y2="19"></line><circle cx="6.5" cy="6.5" r="2.5"></circle><circle cx="17.5" cy="17.5" r="2.5"></circle>
    </symbol>
</svg>